# xmcd
#
# Track frame offsets:
#	150
#	18731
#	38617
#	54287
#	69795
#
# Disc length: 1149 seconds
#
# Revision: 1
# Processed by: cddbd v1.5.2PL0 Copyright (c) Steve Scherf et al.
# Submitted via: audiograbber 1.83.01
#
DISCID=33047b05
DTITLE=Belle - It's About time
DYEAR=2016
DGENRE=Country
TTITLE0=Someone Else You've Lost
TTITLE1=About Time
TTITLE2=Too Far Gone
TTITLE3=Shotgun
TTITLE4=Home To You
EXTD=
EXTT0=
EXTT1=
EXTT2=
EXTT3=
EXTT4=
PLAYORDER=
